<svg preserveAspectRatio="none" overflow="visible" style="display: block;" width="20" height="20" viewBox="0 0 20 20" fill="none" xmlns="http://www.w3.org/2000/svg">
<g id="Group">
<path id="Vector" d="M1 2C1 1.73478 1.10536 1.48043 1.29289 1.29289C1.48043 1.10536 1.73478 1 2 1H18C18.2652 1 18.5196 1.10536 18.7071 1.29289C18.8946 1.48043 19 1.73478 19 2V4C19 4.26522 18.8946 4.51957 18.7071 4.70711C18.5196 4.89464 18.2652 5 18 5H2C1.73478 5 1.48043 4.89464 1.29289 4.70711C1.10536 4.51957 1 4.26522 1 4V2ZM6 12C6 13.0609 6.42143 14.0783 7.17157 14.8284C7.92172 15.5786 8.93913 16 10 16C11.0609 16 12.0783 15.5786 12.8284 14.8284C13.5786 14.0783 14 13.0609 14 12C14 10.9391 13.5786 9.92172 12.8284 9.17157C12.0783 8.42143 11.0609 8 10 8C8.93913 8 7.92172 8.42143 7.17157 9.17157C6.42143 9.92172 6 10.9391 6 12Z" stroke="#35373C" stroke-width="2" stroke-linecap="round" stroke-linejoin="round"/>
<path id="Vector_2" d="M17 5V12C17 13.8565 16.2625 15.637 14.9497 16.9497C13.637 18.2625 11.8565 19 10 19C8.14348 19 6.36301 18.2625 5.05025 16.9497C3.7375 15.637 3 13.8565 3 12V5M10 12H10.01" stroke="#35373C" stroke-width="2" stroke-linecap="round" stroke-linejoin="round"/>
</g>
</svg>
