<svg preserveAspectRatio="none" overflow="visible" style="display: block;" width="230" height="385.148" viewBox="0 0 230 385.148" fill="none" xmlns="http://www.w3.org/2000/svg">
<g id="Group 4">
<path id="Vector" d="M4.40218e-06 100.71L3.47681 100.858C4.80504 101.065 7.89203 101.309 8.67636 102.423C9.60291 103.739 9.18239 104.314 11.0934 104.788C13.5054 105.343 15.9305 105.609 18.2915 106.383C19.8184 106.883 21.0512 108.505 22.3961 109.013C33.776 113.315 44.7089 118.883 55.9396 123.561C56.9482 123.981 59.2713 124.368 60.4016 124.559C60.3269 126.343 60.0742 126.083 60.8466 127.427C62.5147 127.971 63.8152 127.369 65.6163 126.867C69.3487 128.423 73.5655 130.011 77.1676 131.727C81.9301 133.995 84.8307 136.022 89.9473 137.72C94.0891 140.547 96.9671 141.792 101.419 143.889C116.536 151.01 131.954 157.373 147.108 164.394C149.084 165.309 151.49 165.524 153.478 166.375C155.593 169.376 218.722 195.018 225.591 199.316C232.155 203.424 230.923 206.35 224.972 211.246C207.761 220.722 188.279 227.391 170.283 235.481C166.554 237.157 155.9 239.152 154.407 242.674C154.753 244.033 156.411 244.985 157.543 245.651C166.63 250.993 227.724 274.744 229.415 280.014C229.967 281.734 229.964 283.973 229.052 285.57C227.563 288.181 223.378 289.908 220.767 291.138C214.711 293.99 208.349 296.247 202.187 298.859L157.69 317.711L39.0756 369.481C33.4813 371.915 6.13251 382.143 3.09453 385.148H4.40218e-06L4.40218e-06 328.751C3.57965 328.055 14.3753 321.725 19.0364 319.746L64.7754 300.683C83.7503 292.538 102.64 284.197 121.442 275.661C125.604 273.806 129.693 272.335 134.025 270.942C135.56 270.448 138.947 269.85 139.791 268.824L139.584 268.074C136.022 264.779 122.511 259.978 117.716 258.402C113.334 259.742 100.2 265.826 95.2299 267.896C83.0372 272.896 70.9086 278.053 58.8477 283.364C46.2835 288.938 34.0458 295.115 21.0799 299.922C13.8296 302.61 7.41067 306.509 4.40218e-06 308.353V252.459C4.27885 250.072 7.46681 247.706 12.243 245.618C20.7028 241.918 46.8243 232.688 52.9612 227.151C42.8823 224.641 30.3311 217.774 20.7652 213.325C13.8181 210.094 7.33534 206.257 4.40218e-06 203.713V178.489V175.244C1.76441 174.715 2.16715 174.558 3.74273 173.625C9.2418 168.828 36.8395 159.114 44.9988 155.403C48.8893 153.633 48.3561 152.663 52.9958 151.193C52.4926 150.393 51.7554 149.75 50.865 149.414C42.8437 146.442 35.115 143.07 27.3349 139.524C22.6506 137.388 18.1239 135.251 13.504 132.992C9.46629 131.018 4.25425 128.264 4.40218e-06 127.093V100.71ZM86.9968 213.889C88.7377 213.213 90.7547 212.212 92.4713 211.407C108.289 203.987 125.052 197.908 140.821 190.53C134.795 187.743 128.651 185.34 122.528 182.796C120.512 181.959 117.635 181.25 116.014 180.351C113.747 181.263 112.274 183.814 109.126 185.101C102.895 187.649 96.6089 190.198 90.3942 192.777L66.0128 203.178L66.1379 203.777C66.4653 204.179 84.5855 212.86 86.9968 213.889Z" fill="white" fill-opacity="0.2"/>
<path id="Vector_2" d="M52.8435 151.065C53.7561 151.148 57.2658 151.462 57.8264 151.721C62.2558 153.767 68.2193 156.726 72.4514 158.726C79.7963 162.199 111.471 175.554 115.68 180.072C113.42 180.98 111.951 183.517 108.812 184.798C102.6 187.332 96.3314 189.869 90.1346 192.434L65.8232 202.781C63.3249 202.247 59.6354 201.809 57.4677 200.834C52.6739 198.677 47.7697 196.319 43.0029 194.124C37.4513 191.569 31.9426 189.011 26.331 186.614C24.91 186.007 23.3005 184.959 21.8005 184.256C19.7799 183.236 14.8638 183.32 13.5147 181.515C11.4421 178.741 8.15375 178.839 4.86576 178.589L6.60327e-06 178.22V174.992C1.75934 174.466 2.16093 174.31 3.73198 173.381C9.21525 168.609 36.7336 158.945 44.8696 155.254C48.7489 153.493 48.2172 152.527 52.8435 151.065Z" fill="white" fill-opacity="0.2"/>
<path id="Vector_3" d="M225.086 0.000187159H229.838C229.873 6.04662 230.399 52.2184 229.344 54.296C224.521 57.9706 204.826 66.1446 198.464 68.8106L163.26 83.6945C131.146 97.4223 98.5284 113.077 65.9203 125.207C64.5975 123.935 62.3047 124.17 60.4266 124.115C59.2958 123.924 56.9718 123.537 55.9627 123.117C44.7274 118.438 33.79 112.868 22.4054 108.565C21.0599 108.057 19.8266 106.435 18.2991 105.934C15.937 105.16 13.511 104.894 11.098 104.339C9.18618 103.865 9.60688 103.289 8.67994 101.973C7.89528 100.859 4.80703 100.615 3.47824 100.407L0 100.26L0 96.1439C1.68437 96.0797 1.96539 96.0241 3.56845 95.4988C6.36759 93.5722 14.8296 90.2028 18.6428 88.655C40.2466 79.8869 61.9763 71.0351 83.0854 61.1582C85.3527 60.0974 87.3123 58.8664 89.6847 57.8421L200.552 10.1625C204.508 8.46183 223.687 2.46575 225.086 0.000187159Z" fill="white" fill-opacity="0.2"/>
<path id="Vector_4" d="M89.8227 137.26C90.9776 135.247 92.2085 133.977 94.3671 133.009C120.17 121.44 146.575 111.113 172.46 99.7259C186.584 93.5127 200.341 86.4171 214.968 81.3647C217.915 80.3465 226.505 75.5393 229.126 76.293C230.252 79.0609 230.205 126.784 229.468 131.723C221.122 136.996 210.643 140.688 201.591 144.489C193.518 147.879 185.203 151.614 177.154 154.985C172.136 157.086 156.832 162.728 153.444 166.036C151.454 165.181 149.045 164.965 147.066 164.046C131.889 156.995 116.45 150.605 101.311 143.454C96.8526 141.348 93.9704 140.098 89.8227 137.26Z" fill="white" fill-opacity="0.2"/>
</g>
</svg>
